<svg width="26" height="24" viewBox="0 0 26 24" fill="none" xmlns="http://www.w3.org/2000/svg">
<path fill-rule="evenodd" clip-rule="evenodd" d="M4.49861 0H2.7754C2.02775 0.0149476 1.31636 0.325068 0.796449 0.862692C0.276542 1.40032 -0.0096726 2.1218 0.000258524 2.86971V17.2163C-0.00984085 17.9643 0.276319 18.6859 0.796261 19.2235C1.3162 19.7612 2.0277 20.0713 2.7754 20.0861H15.7793L20.6462 23.9191C20.7039 23.9641 20.7734 23.9916 20.8462 23.9984C20.9191 24.0051 20.9924 23.9909 21.0575 23.9573C21.1225 23.9237 21.1765 23.8721 21.2132 23.8088C21.2499 23.7454 21.2677 23.6729 21.2644 23.5997V20.0861H23.2246C23.9723 20.0713 24.6838 19.7612 25.2037 19.2235C25.7237 18.6859 26.0098 17.9643 25.9997 17.2163L25.9997 14.4648L25.9997 2.86971C26.0084 2.21529 25.7904 1.5811 25.3874 1.07261C25.3299 0.99997 25.2685 0.929895 25.2036 0.862692C24.7486 0.392271 24.1471 0.0960324 23.503 0.0193094C23.4109 0.00834897 23.3181 0.00186845 23.2246 0H4.49861ZM20.986 7.11244C20.986 8.01744 20.2525 8.75109 19.3477 8.75109C18.443 8.75109 17.7095 8.01744 17.7095 7.11244C17.7095 6.20744 18.443 5.47379 19.3477 5.47379C20.2525 5.47379 20.986 6.20744 20.986 7.11244ZM20.986 13.142C20.986 14.047 20.2525 14.7806 19.3477 14.7806C18.4429 14.7806 17.7095 14.047 17.7095 13.142C17.7095 12.237 18.4429 11.5033 19.3477 11.5033C20.2525 11.5033 20.986 12.237 20.986 13.142ZM22.3617 11.7659C23.2665 11.7659 24 11.0322 24 10.1272C24 9.22224 23.2665 8.48859 22.3617 8.48859C21.4569 8.48859 20.7234 9.22224 20.7234 10.1272C20.7234 11.0322 21.4569 11.7659 22.3617 11.7659ZM17.972 10.1272C17.972 11.0322 17.2385 11.7659 16.3338 11.7659C15.429 11.7659 14.6955 11.0322 14.6955 10.1272C14.6955 9.22224 15.429 8.48859 16.3338 8.48859C17.2385 8.48859 17.972 9.22224 17.972 10.1272ZM11.0498 8.7037H8.10536V5.7586C8.10469 5.68348 8.07438 5.61166 8.02103 5.55878C7.96768 5.5059 7.89561 5.47623 7.8205 5.47623H5.54482C5.46927 5.47623 5.39681 5.50625 5.34339 5.55969C5.28997 5.61312 5.25996 5.68559 5.25996 5.76116V8.70625H2.31556C2.24001 8.70625 2.16756 8.73627 2.11413 8.78971C2.06071 8.84314 2.0307 8.91561 2.0307 8.99118V11.2674C2.03062 11.3048 2.03793 11.3419 2.05221 11.3765C2.0665 11.4111 2.08748 11.4426 2.11395 11.4691C2.14042 11.4955 2.17185 11.5165 2.20645 11.5308C2.24105 11.5451 2.27813 11.5524 2.31556 11.5523H5.25996V14.4974C5.25987 14.5349 5.26719 14.5719 5.28147 14.6066C5.29576 14.6412 5.31674 14.6726 5.3432 14.6991C5.36967 14.7256 5.40111 14.7465 5.43571 14.7608C5.47031 14.7751 5.50739 14.7824 5.54482 14.7823H7.8205C7.89605 14.7823 7.9685 14.7523 8.02193 14.6989C8.07535 14.6455 8.10536 14.573 8.10536 14.4974V11.5523H11.0498C11.1253 11.5523 11.1978 11.5223 11.2512 11.4689C11.3046 11.4154 11.3346 11.343 11.3346 11.2674V8.9899C11.3348 8.95238 11.3275 8.91519 11.3133 8.88047C11.2991 8.84576 11.2781 8.8142 11.2516 8.7876C11.2252 8.76101 11.1937 8.73991 11.1591 8.72551C11.1244 8.71111 11.0873 8.7037 11.0498 8.7037Z" fill="white"/>
</svg>
