<svg width="68" height="52" viewBox="0 0 68 52" fill="none" xmlns="http://www.w3.org/2000/svg">
<path d="M62.0711 0H5.64282C2.52799 0.00401805 0.00366784 2.76936 0 6.18161V45.7439C0.00366784 49.1562 2.52799 51.9215 5.64282 51.9255H62.0711C62.3878 51.9269 62.7039 51.8966 63.0157 51.8353C65.7311 51.3373 67.7191 48.7601 67.7139 45.7439V6.18161C67.7102 2.76921 65.1859 0.00401805 62.0711 0ZM5.64282 49.4529C3.88861 49.4526 2.425 47.9846 2.27067 46.0703L24.772 29.9536L47.6548 49.4529H5.64282ZM65.4568 45.7439C65.4586 47.5585 64.2588 49.1069 62.6241 49.3997C62.4415 49.4357 62.2564 49.4535 62.0711 49.4529H51.3305L36.3782 36.7052L49.7494 24.9923L65.4568 35.3168V45.7439ZM65.4568 32.4337L50.2381 22.4306C49.8335 22.164 49.3203 22.2016 48.9515 22.5246L34.5431 35.1474L25.5202 27.46C25.1401 27.1363 24.6144 27.1124 24.2111 27.4006L2.25713 43.1254V6.18161C2.25713 4.13318 3.77293 2.47264 5.64282 2.47264H62.0711C63.941 2.47264 65.4568 4.13318 65.4568 6.18161V32.4337Z" fill="#9CA3AF"/>
<path d="M34.1432 7.41774C30.4034 7.41774 27.3718 10.7388 27.3718 14.8357C27.3755 18.9309 30.405 22.2496 34.1432 22.2536C37.883 22.2536 40.9146 18.9326 40.9146 14.8357C40.9146 10.7388 37.883 7.41774 34.1432 7.41774ZM34.1432 19.781C31.6501 19.781 29.629 17.5669 29.629 14.8357C29.629 12.1045 31.6501 9.89039 34.1432 9.89039C36.6364 9.89039 38.6575 12.1045 38.6575 14.8357C38.6575 17.5669 36.6364 19.781 34.1432 19.781Z" fill="#9CA3AF"/>
</svg>
